PathFileType	4	(X/Y/Z)	Patient4_TMGait_0pt7_01_left_06.trc.trc
DataRate	CameraRate	NumFrames	NumMarkers	Units	OrigDataRate	OrigDataStartFrame	OrigNumFrames
87.500000000000	87.500000000000	5	33	mm	87.500000000000	53	       141
Frame#	Time	Sacral			L.Shoulder			Chest			R.Shoulder			Neck			R.ASIS			L.ASIS			R.Thigh.Superior			R.Thigh.Lateral			R.Thigh.Inferior			R.Patella			L.Thigh.Superior			L.Thigh.Lateral			L.Thigh.Inferior			L.Patella			L.Shank.Superior			L.Shank.Lateral			L.Shank.Inferior			R.Shank.Superior			R.Shank.Lateral			R.Shank.Inferior			R.Heel			R.Midfoot.Superior			R.Midfoot.Lateral			R.Toe			L.Heel			L.Midfoot.Lateral			L.Midfoot.Superior			L.Toe			L.Elbow			L.Wrist			R.Elbow			R.Wrist			
		X1	Y1	Z1	X2	Y2	Z2	X3	Y3	Z3	X4	Y4	Z4	X5	Y5	Z5	X6	Y6	Z6	X7	Y7	Z7	X8	Y8	Z8	X9	Y9	Z9	X10	Y10	Z10	X11	Y11	Z11	X12	Y12	Z12	X13	Y13	Z13	X14	Y14	Z14	X15	Y15	Z15	X16	Y16	Z16	X17	Y17	Z17	X18	Y18	Z18	X19	Y19	Z19	X20	Y20	Z20	X21	Y21	Z21	X22	Y22	Z22	X23	Y23	Z23	X24	Y24	Z24	X25	Y25	Z25	X26	Y26	Z26	X27	Y27	Z27	X28	Y28	Z28	X29	Y29	Z29	X30	Y30	Z30	X31	Y31	Z31	X32	Y32	Z32	X33	Y33	Z33	

53	7.514285714286	758.518768865090	1013.252275061775	465.317964951782	972.730967504811	1431.301073292152	283.097139679311	1063.029850647608	1359.594673246210	451.573515924859	975.489593241636	1444.930812641915	619.053181170950	970.386139139385	1494.957480881880	438.223790361334	977.748903471026	949.688358742926	593.431958892696	980.656549304265	961.828419752633	319.423381206071	1073.742762603755	797.951363062851	566.959047647039	1048.287840145976	676.078489937717	644.407556437733	1145.204062393978	647.006420717872	568.877790699783	1176.424387232062	533.024821999622	592.429666486694	1026.948690396680	753.585257970590	353.066466274129	940.802447563916	638.883837918387	290.503989161886	1018.305946103762	561.083854868714	360.925528015279	1016.412233722506	492.375187236883	371.869773243933	993.660807191177	420.797440780738	361.360626533587	911.016754682817	303.496006338882	307.305974373314	960.848862322791	195.016523649070	382.936133793474	1099.369661218877	454.706883732149	595.971809069349	974.394102110403	416.437293429477	650.074986463111	960.969762283815	308.264095907661	600.489349290117	762.419006304553	254.954952253048	562.548388386554	923.875107866905	183.122423517317	608.476047779169	813.240701701174	189.417547900023	636.809632261985	979.210676607379	66.191091332134	635.199631033577	833.897067122953	37.342767740990	420.734311948071	910.005717940633	35.548286897526	341.382080234496	991.532862711284	96.706661637805	371.201182357141	1121.193924434814	46.858378637955	345.728745970498	935.760370610844	1084.175540235618	161.599048285035	1030.389082922090	840.778230627916	169.818086724388	937.289293378391	1098.257824232025	737.542175673340	1149.401395693690	953.107201879420	720.885162964157	
54	7.525714285714	757.310554079834	1013.505631981858	464.366323274656	973.427700248230	1432.080997241280	283.249907326168	1062.716590233813	1359.614676764347	451.925997916459	974.491139474731	1444.575602604807	619.006640277622	970.329820447551	1495.163757452438	438.464965434090	976.517444720577	950.559522618267	593.046006625588	979.608593167237	962.040486030926	318.954161881562	1074.561611673874	802.418171913675	566.126587449227	1052.156962747970	680.270566910178	644.205583780614	1149.379256536718	653.117969468236	568.343108053713	1183.478561389939	540.238023913513	592.177369379213	1024.194547574212	752.811101135634	353.037874762160	936.963580729970	638.849969694195	290.063232697926	1013.343110913933	560.255590263760	360.769359723629	1010.733566983476	491.652951718388	371.786509951768	987.723449002771	420.300878418843	361.245152007384	904.529186734589	303.425452105917	307.165461902161	953.456492975598	194.711990398236	382.961843849701	1109.471491608232	459.520653970617	596.160528428151	986.556330642708	416.017532324727	650.771947153935	977.546938122793	307.191168573862	601.400455228214	781.145405790205	245.011497905548	564.494642162406	945.990016347466	180.767002087966	609.969755680490	835.278852787400	182.072924941443	638.733669726820	1006.698259318693	66.551076639071	636.650090026908	825.842814186540	37.336453474875	420.729313515061	901.971041116061	35.553861851948	341.386029557291	983.571679707960	96.642655229193	371.243041746395	1113.225708181241	46.545454785890	345.734529358352	941.401960507780	1085.426080187212	159.316947045805	1049.962643626830	847.990523958148	166.787000100125	927.967816281941	1098.036471169592	736.325954320410	1126.410695996700	932.850884241123	725.374365664016	
55	7.537142857143	756.161706896977	1013.690180427654	463.473315205984	974.227519004168	1432.788467978715	283.476086136758	1062.484850844382	1359.547737438411	452.346818949760	973.516090069609	1444.143670618580	618.983541947859	970.335219273790	1495.297954431621	438.760721547571	975.369382839964	951.306796545810	592.801552806372	978.578232159739	962.116847318203	318.579207225639	1075.138718858284	806.400964449035	565.599670424971	1055.355279840994	684.000182010601	644.114369344577	1152.792743031154	658.516909558723	567.976710717054	1189.463748070653	546.965425567761	592.113820024109	1021.426854889424	751.980968389737	353.039647284784	933.113287167481	638.785294187922	289.637848500004	1008.372438883756	559.395919817770	360.591664757069	1005.068871357073	490.925307590032	371.651017278636	981.788446621811	419.784956761720	361.113461577589	898.027483854639	303.341203436559	307.029963373175	946.041171462405	194.392164886608	382.979787303844	1118.914370299240	463.872800495927	596.534335430749	998.591198664834	414.678608387736	651.808212821073	994.487184852659	305.366263117386	602.643712702232	800.930173460626	233.631832362834	566.932558153216	969.081650267432	177.727879064016	611.884259514420	858.525206746689	173.658515136652	641.118810587462	1035.467077973790	66.625813974254	638.524959794454	817.805785392729	37.339128885997	420.722173135225	893.940334240037	35.556972357450	341.393644101355	975.623614971003	96.570533861744	371.282271018095	1105.267746782435	46.208976400649	345.736798873547	946.326748441139	1086.724250301096	157.297294237271	1069.184249964908	856.468795919368	164.145402261255	919.514259893926	1097.955793655311	735.444959329902	1102.177257172510	914.130774483160	729.680651782664	
56	7.548571428571	755.094731015772	1013.817658355243	462.656837408844	975.098843714892	1433.412481565862	283.779898042990	1062.335394707041	1359.396214680921	452.832839464807	972.607247339369	1443.641282949459	619.022952135124	970.405360922977	1495.358532872353	439.120641764303	974.316055166855	951.903534509218	592.668941183369	977.562243713048	962.057837812158	318.282295631195	1075.467752943099	809.810423198917	565.312228740402	1057.845229524734	687.169890602668	644.111752633168	1155.406701877724	663.069354244116	567.762806703995	1194.330422385036	553.069946560238	592.215697586234	1018.667055443846	751.103922397271	353.067557738746	929.273982846893	638.688403877229	289.234220760478	1003.412864637430	558.509696348379	360.395970825534	999.436222167176	490.197605184371	371.470688616086	975.869040481210	419.251339190837	360.972648077068	891.524802434922	303.247091079945	306.900542851779	938.615492128333	194.058826201095	382.994951721545	1127.609690016139	467.700919088054	597.074771695817	1010.476236780987	412.483010880052	653.188548570739	1011.706888628011	302.924149142871	604.217934620883	821.804331782384	221.109211815733	569.887788160315	993.023930013404	174.239307786200	614.187220284217	882.936737972721	164.470714649781	643.950696817032	1065.277409096530	66.701837709781	640.746883958286	809.785852233809	37.352105922351	420.708617147761	885.913579214054	35.558294681943	341.404086250227	967.687062848875	96.491532172732	371.320467552476	1097.317628716548	45.856111089659	345.734694551754	950.604547066203	1088.013675363605	155.545956901319	1087.921504293242	866.204004268468	161.905217589214	911.871568902687	1097.976432704380	734.878208256256	1076.953125702250	897.219432000361	733.740124836523	
57	7.560000000000	754.138167762993	1013.900572046610	461.937183442416	976.003293953778	1433.949216169554	284.168095363546	1062.267327410181	1359.165599074368	453.378348832509	971.817116314015	1443.076352286422	619.164212995917	970.541711727725	1495.347422970071	439.556642299480	973.372030071853	952.330331045707	592.615599703281	976.564361110783	961.871907701572	318.049466906450	1075.537117276157	812.561557401603	565.198916131414	1059.584188556143	689.689111467730	644.179396679236	1157.182482790553	666.652002396360	567.690911154936	1198.038358276477	558.426790573567	592.454453274323	1015.939090667511	750.188433110543	353.119782266457	925.467716557062	638.559502879928	288.860692217321	998.483485198855	557.602434988799	360.190221263806	993.850805617376	489.471860997526	371.259616451404	969.977164915136	418.702132555612	360.832465955764	885.033278171820	303.147238569754	306.780853684452	931.193931096845	193.714527909234	383.013455805038	1135.470210416979	470.955114725386	597.760591369141	1022.181595571035	409.512780869130	654.913028001928	1029.106570877931	300.012535921576	606.110672425359	843.770309945370	207.740233156869	573.373745726742	1017.678197529977	170.553634791780	616.837434622178	908.450160668625	154.815051825888	647.207320332618	1095.888448065506	67.085533724043	643.225642915962	801.780523034528	37.376421721681	420.685838096081	877.890348328755	35.558958926345	341.416996828788	959.759297436078	96.407328559860	371.359662927094	1089.372084699156	45.494222412143	345.728223985910	954.339892105477	1089.254525103555	154.064849115892	1106.042283914539	877.165169230363	160.077871883540	904.939956769889	1098.079213290531	734.587493134805	1051.041711957359	882.346658863207	737.486686876618	
